# xmcd
#
# Track frame offsets: 
#        150
#        17553
#        39953
#        59438
#        74068
#        91726
#        109834
#        130114
#        147967
#        166657
#
# Disc length: 2434 seconds
#
# Revision: 1
# Processed by: cddbd v1.5.2PL0 Copyright (c) Steve Scherf et al.
# Submitted via: ExactAudioCopy v1.0b6
#
DISCID=8009800a
DTITLE=Juice Newton - Duets
DYEAR=2010
DGENRE=Country
TTITLE0=Juice Newton with Gary Morris - Still The One
TTITLE1=Juice Newton with Frankie Valli - The Biggest Part Of Me
TTITLE2=Juice Newton with Randy Meisner - Take It To The Limit
TTITLE3=Juice Newton with Willie Nelson - Touch Me
TTITLE4=Juice Newton with Glen Campbell - Without You
TTITLE5=Juice Newton with Gary Morris - Fooled Around And Fell In Love
TTITLE6=Juice Newton with Dan Seal - These Dreams
TTITLE7=Juice Newton with Glen Campbell - Up Where We Belong
TTITLE8=Juice Newton with Melissa Manchester - You've Lost That Lovin'
TTITLE8=Feelin'
TTITLE9=Juice Newton with Willie Nelson - Funny How Time Slips Away
EXTD=
EXTT0=
EXTT1=
EXTT2=
EXTT3=
EXTT4=
EXTT5=
EXTT6=
EXTT7=
EXTT8=
EXTT9=
PLAYORDER=
